<?xml version="1.0" encoding="UTF-8" standalone="no"?>
<!-- Created with Inkscape (http://www.inkscape.org/) -->

<svg
   xmlns:dc="http://purl.org/dc/elements/1.1/"
   xmlns:cc="http://creativecommons.org/ns#"
   xmlns:rdf="http://www.w3.org/1999/02/22-rdf-syntax-ns#"
   xmlns:svg="http://www.w3.org/2000/svg"
   xmlns="http://www.w3.org/2000/svg"
   xmlns:sodipodi="http://sodipodi.sourceforge.net/DTD/sodipodi-0.dtd"
   xmlns:inkscape="http://www.inkscape.org/namespaces/inkscape"
   width="900"
   height="900"
   viewBox="0 0 238.12499 238.12501"
   version="1.1"
   id="svg8"
   inkscape:version="0.92.3 (2405546, 2018-03-11)"
   sodipodi:docname="logo.svg">
  <defs
     id="defs2" />
  <sodipodi:namedview
     id="base"
     pagecolor="#ffffff"
     bordercolor="#666666"
     borderopacity="1.0"
     inkscape:pageopacity="0.0"
     inkscape:pageshadow="2"
     inkscape:zoom="0.32"
     inkscape:cx="383.37335"
     inkscape:cy="237.24603"
     inkscape:document-units="mm"
     inkscape:current-layer="layer1"
     showgrid="false"
     units="px"
     inkscape:snap-bbox="true"
     inkscape:bbox-nodes="false"
     inkscape:snap-page="true"
     inkscape:window-width="1920"
     inkscape:window-height="1017"
     inkscape:window-x="-8"
     inkscape:window-y="-8"
     inkscape:window-maximized="1" />
  <metadata
     id="metadata5">
    <rdf:RDF>
      <cc:Work
         rdf:about="">
        <dc:format>image/svg+xml</dc:format>
        <dc:type
           rdf:resource="http://purl.org/dc/dcmitype/StillImage" />
        <dc:title />
      </cc:Work>
    </rdf:RDF>
  </metadata>
  <g
     inkscape:label="Camada 1"
     inkscape:groupmode="layer"
     id="layer1"
     transform="translate(0,-58.874983)">
    <rect
       style="fill:none;fill-opacity:1;stroke:none;stroke-width:2.64583325;stroke-miterlimit:4;stroke-dasharray:none;stroke-opacity:1"
       id="rect979"
       width="238.125"
       height="238.125"
       x="0"
       y="58.874985" />
    <g
       id="g1088"
       transform="translate(2.6634187,366.44793)"
       inkscape:export-xdpi="96"
       inkscape:export-ydpi="96">
      <circle
         style="fill:#343a40;fill-opacity:1;stroke:#530000;stroke-width:0.79374999;stroke-miterlimit:4;stroke-dasharray:none;stroke-opacity:1"
         id="circle936"
         cx="116.05637"
         cy="-188.89586"
         r="116.68237" />
      <path
         d="m 236.10156,-1228.9043 c -0.66132,-0.018 -1.18074,0.1426 -1.55859,0.4824 -1.5114,1.3594 -1.70031,2.7563 -0.56641,4.1875 0.28348,0.3578 0.80449,1.4204 1.56055,3.1914 0.47258,1.4133 0.61453,2.8176 0.42578,4.2129 -0.18875,1.3953 -0.14285,2.2731 0.14063,2.6309 -0.0944,0.6976 0.002,1.2242 0.28515,1.582 l -0.56836,0.5098 c -0.28347,-0.3578 -0.89699,-0.7239 -1.84179,-1.0996 -0.94481,-0.3758 -1.74688,-0.5719 -2.40821,-0.5899 -0.28347,-0.3578 -0.89894,-0.7258 -1.84375,-1.1015 l -2.97461,-0.08 -4.39453,-0.6445 c -0.9448,-0.3758 -1.70062,-0.9212 -2.26758,-1.6368 l -2.125,-2.6836 -1.70117,-2.1464 c 0.37785,-0.3399 0.61461,-0.859 0.70899,-1.5567 l 0.2832,-2.0937 c 0.28312,-2.093 0.0467,-2.7989 -0.70898,-2.1192 -0.37786,0.3399 -1.46489,1.0101 -3.25977,2.0117 l -4.67578,1.4493 c -1.03918,0.3219 -1.65305,1.1808 -1.8418,2.5761 -0.0944,0.6977 0.18828,1.0544 0.84961,1.0723 l 2.12695,2.6836 -1.13476,1.0195 -1.13281,1.0196 c -0.66133,-0.018 -1.27485,-0.3841 -1.8418,-1.0997 -0.47258,-1.4132 -0.47418,-2.6382 -0.002,-3.6757 0.47222,-1.0375 0.23582,-1.7454 -0.70899,-2.1211 -0.56695,-0.7156 -1.36902,-0.9118 -2.4082,-0.5899 -0.66133,-0.018 -2.31403,1.1621 -4.95899,3.541 -2.55057,1.6813 -4.39379,3.0332 -5.52734,4.0528 l -5.66797,5.0976 c -2.64495,2.379 -4.48621,3.7289 -5.52539,4.0508 -1.03918,0.3219 -2.26852,0.8129 -3.68555,1.4746 -1.41702,0.6618 -2.31355,1.1621 -2.6914,1.502 l -3.9668,3.5683 -1.70117,1.5293 c -0.66133,-0.018 -1.18074,0.1446 -1.55859,0.4844 -0.37786,0.3399 -1.08583,0.6703 -2.125,0.9922 -1.03918,0.3219 -1.79536,1.0016 -2.26758,2.0391 -1.3223,2.4148 -2.07688,4.3195 -2.26563,5.7148 -0.47222,1.0375 -0.56668,1.736 -0.2832,2.0938 0.66133,0.018 1.18074,-0.1446 1.55859,-0.4844 l 1.5586,-0.4824 0.42382,0.5371 -0.14062,1.0468 -2.83398,2.5489 -2.26758,2.039 c -1.03918,0.3219 -1.88946,0.4731 -2.55078,0.4551 -0.28348,-0.3578 -1.08555,-0.5539 -2.40821,-0.5898 -1.60613,-0.3937 -2.59871,-0.42 -2.97656,-0.08 -0.37785,0.3398 -0.99172,1.1969 -1.8418,2.5742 -0.47222,1.0375 -1.08609,1.8965 -1.84179,2.5762 -0.7557,0.6797 -2.31431,2.3882 -4.67578,5.125 -2.26711,2.0391 -3.63716,3.5777 -4.10938,4.6152 -0.47222,1.0375 -1.88853,2.9234 -4.25,5.6602 -2.36147,2.7367 -3.77778,4.6246 -4.25,5.6621 -1.3223,2.4148 -3.02321,3.9441 -5.10156,4.5879 l -1.41797,-0.5625 -0.56641,0.5097 -3.40039,3.0586 c -1.13355,1.0196 -1.93598,2.0465 -2.4082,3.084 -0.47222,1.0375 -1.22876,2.9442 -2.26758,5.7168 -0.94445,2.075 -1.51047,3.8098 -1.69922,5.2051 -0.47222,1.0375 -0.80344,2.2531 -0.99219,3.6484 l -0.2832,2.0938 c -0.0944,0.6976 -0.32918,1.2148 -0.70703,1.5547 l -0.70898,1.5566 c -0.37785,0.3399 -1.7938,1.0027 -4.25,1.9863 -2.07836,0.6438 -3.45001,0.9555 -4.11133,0.9375 -0.85043,-1.0734 -2.266021,-1.6356 -4.250002,-1.6894 -0.661328,-0.018 -1.890313,-0.7521 -3.685547,-2.2012 l -2.976563,-3.7578 -2.126953,-2.6816 c -1.133907,-1.4312 -1.652967,-2.4958 -1.558594,-3.1934 -0.283477,-0.3578 -0.519881,-1.0657 -0.708984,-2.1211 -0.47258,-1.4132 -0.472224,-2.6383 0,-3.6758 0.09437,-0.6976 0.09473,-1.9227 0,-3.6758 -0.378207,-2.1108 -0.851015,-3.5246 -1.417969,-4.2402 -0.189103,-1.0554 -0.710116,-2.12 -1.560547,-3.1934 l -2.125,-2.6835 c -0.189103,-1.0555 -0.992772,-2.4767 -2.410156,-4.2657 l -3.402344,-4.2949 c -0.661327,-0.018 -1.417147,-0.5633 -2.267578,-1.6367 l -0.849609,-1.0723 c -0.37785,0.3399 -0.708711,0.3305 -0.992188,-0.027 l -0.992187,-0.027 c -0.37785,0.3399 -0.803167,1.0289 -1.275391,2.0664 -0.7557,0.6797 -1.038713,1.5481 -0.849609,2.6036 0.378206,2.1108 0.993319,3.702 1.84375,4.7753 0.283477,0.3578 0.754688,0.5465 1.416015,0.5645 1.039178,-0.3219 1.700899,-0.3051 1.984375,0.053 1.133908,1.4312 1.275856,2.8356 0.425782,4.2129 l -0.708985,1.5567 c -0.661327,-0.018 -1.132539,-0.2067 -1.416015,-0.5645 l -0.851563,-1.0723 c 0.188747,-1.3952 -0.471021,-1.414 -1.982422,-0.055 -1.13355,1.0195 -2.17274,2.5675 -3.117187,4.6425 -0.09437,0.6977 0.04757,2.102 0.425781,4.2129 0.47258,1.4133 0.614528,2.8176 0.425781,4.2129 l 1.701172,9.4981 c 0.189103,1.0554 0.850468,2.2992 1.984375,3.7304 1.133907,1.4312 2.174337,2.3352 3.119141,2.711 0.566953,0.7156 1.086013,1.7801 1.558593,3.1933 0.566954,0.7156 0.614802,1.5914 0.142579,2.6289 -0.09437,0.6977 -1.039463,2.7723 -2.833985,6.2246 -1.416671,3.1125 -2.408012,5.5364 -2.974609,7.2715 -0.472224,1.0375 -0.755236,1.9059 -0.849609,2.6035 -0.377851,0.3399 -0.803167,1.029 -1.275391,2.0664 -0.472224,1.0375 -0.897541,1.7247 -1.275391,2.0645 -0.37785,0.3399 -0.897266,0.5023 -1.558594,0.4844 l -1.984374,-0.055 c -0.283477,-0.3578 -0.945198,-0.3766 -1.984376,-0.055 -0.661327,-0.018 -1.038439,0.3219 -1.132812,1.0195 l -0.425781,3.1407 0.425781,0.5371 c 0.283477,0.3578 0.377577,0.8844 0.283203,1.582 l 0.425781,0.5371 0.283204,1.584 1.417968,0.5625 c 0.566954,0.7156 1.228318,1.9594 1.984375,3.7305 l 1.701172,2.1464 c 1.133907,1.4312 1.039095,3.3547 -0.283203,5.7696 -0.09437,0.6976 -0.754498,1.9039 -1.982422,3.6211 -1.227924,1.7172 -1.984101,2.3968 -2.267578,2.039 l -0.566406,0.5098 c -0.283477,-0.3578 -0.614338,-0.3652 -0.992188,-0.025 -0.37785,0.3399 -0.70871,0.3305 -0.992187,-0.027 -0.37785,0.3398 -0.708711,0.3304 -0.992188,-0.027 -0.283477,-0.3578 -0.614337,-0.3672 -0.992187,-0.027 l -0.425782,-0.5371 c -0.661327,-0.018 -1.700159,0.305 -3.117187,0.9668 -1.039177,0.3219 -1.793401,1.0015 -2.265625,2.039 -0.472224,1.0375 -0.992353,3.6481 -1.558594,7.834 l -1.132812,8.3731 c 7.13e-4,4.9014 0.284609,7.7101 0.851562,8.4257 l 1.417969,4.2383 c 0.94516,2.8265 1.984877,6.1806 3.119141,10.0625 1.228637,3.1843 2.599214,6.5478 4.111328,10.0899 1.512114,3.542 2.788591,6.3789 3.828125,8.5078 1.701217,4.5975 3.44855,8.8462 5.24414,12.74607 1.889965,3.20223 3.164845,4.81213 3.826172,4.83008 l 2.976563,3.75586 c -0.09437,0.69764 -0.09278,1.92269 0.002,3.67578 l -0.566406,4.18555 c 0.189103,1.05544 0.613707,2.81843 1.27539,5.28711 0.756057,1.77103 1.04031,3.35471 0.851563,4.75 l -1.273438,9.41797 c -0.56624,4.18587 -0.803714,7.15511 -0.708984,8.9082 -0.28312,2.09294 -0.28188,4.54303 0.002,7.35156 0.378207,2.11089 0.851015,3.52464 1.417969,4.24024 0.189103,1.05544 0.331051,2.4598 0.425781,4.21289 0.47258,1.41324 0.99164,2.47776 1.558594,3.19336 0.189103,1.05544 0.710116,2.11996 1.560547,3.19335 0.566953,0.7156 0.803357,1.4215 0.708984,2.11915 l 1.275391,1.61132 c 0.944803,0.37575 1.604571,0.39259 1.982421,0.0527 1.511401,-1.3594 2.598439,-2.02967 3.259766,-2.01172 0.283477,0.3578 1.181602,1.08249 2.69336,2.17383 1.511757,1.09134 2.550233,1.99534 3.117187,2.71094 0.944804,0.37574 2.173433,2.33292 3.685547,5.875 l 3.402344,7.9707 c 1.133907,1.43119 2.07988,3.0317 2.83593,4.80273 l 2.125,2.6836 c 1.32266,0.0359 2.55164,0.76998 3.68555,2.20117 -0.0944,0.69764 0.0938,1.75277 0.56641,3.16601 l 1.27539,1.60938 c -0.0944,0.69764 0.33218,2.46063 1.27734,5.28711 1.32301,2.48663 2.22078,4.43637 2.69336,5.84961 0.47258,1.41324 1.22804,3.18366 2.26758,5.3125 0.75606,1.77103 1.04031,3.35471 0.85156,4.75 0.1891,1.05544 0.33105,2.4598 0.42578,4.21289 0.0947,1.75309 0.23668,3.15745 0.42578,4.21289 0.56696,0.71559 1.08602,1.78012 1.5586,3.19336 l 1.27539,1.60937 c 0.28347,0.3578 0.47363,1.41293 0.56836,3.16602 0.47258,1.41324 0.80308,2.64768 0.99218,3.70312 0.56696,0.7156 1.46473,2.66729 2.69336,5.85157 1.22864,3.18427 1.88965,5.65121 1.98438,7.40429 0.0947,1.75309 0.75769,4.22198 1.98633,7.40625 0.94516,2.82648 1.32351,4.9387 1.13476,6.33399 -0.18874,1.39529 -0.095,3.14693 0.28321,5.25781 0.47258,1.41324 1.03984,2.13049 1.70117,2.14844 l 0.42578,0.53515 c 0.37785,-0.33984 0.70871,-0.33045 0.99219,0.0274 l 0.42382,0.53711 2.12696,2.68359 c -0.0944,0.69765 -0.14098,2.27192 -0.14063,4.72266 3.6e-4,2.45073 0.0941,4.20432 0.28321,5.25976 0.56695,0.7156 1.65327,2.49542 3.25976,5.33985 1.32301,2.48663 2.45754,3.91722 3.40235,4.29296 l 2.55078,3.22071 c 1.1339,1.43119 1.79527,2.67307 1.98437,3.72851 0.56695,0.7156 1.08761,3.00517 1.56055,6.86914 0.56731,3.16633 1.08796,5.45786 1.56054,6.8711 0.47259,1.41324 1.46445,3.88957 2.97657,7.43164 1.22863,3.18427 2.26871,5.31333 3.11914,6.38672 l 4.67578,5.90429 c 0.28348,0.3578 1.13499,2.65677 2.55273,6.89649 1.79559,3.89987 3.02387,7.08405 3.68555,9.55273 0.66168,2.46868 1.27644,5.28485 1.84375,8.45117 0.28383,2.80854 0.70844,4.57152 1.27539,5.28711 0.1891,1.05545 0.80386,3.87356 1.84375,8.45313 1.13426,3.88192 1.89133,6.8774 2.26953,8.98828 0.37821,2.11089 0.70836,4.57038 0.99219,7.37891 0.37821,2.11088 0.70871,3.34533 0.99219,3.70312 0.28347,0.3578 0.99269,2.47746 2.12695,6.35938 1.51211,3.54207 2.45773,6.36958 2.83594,8.48047 0.75606,1.77103 1.93808,5.30444 3.54492,10.5996 1.32337,4.93737 2.17453,8.46139 2.55273,10.57227 0.37821,2.11089 0.80246,5.09697 1.27539,8.96094 0.56732,3.16633 0.75711,5.44846 0.56836,6.84375 -0.18874,1.39529 -0.0471,4.0247 0.42579,7.88867 0.56731,3.16633 1.08796,5.4559 1.56054,6.86914 l 2.83594,8.47852 c 1.79559,3.89987 3.07011,6.73677 3.82617,8.50781 l 3.40235,7.96875 c 1.51211,3.54207 2.31542,6.19027 2.41015,7.94336 0.47258,1.41324 1.23,3.18367 2.26953,5.3125 0.75606,1.77103 1.22887,3.18479 1.41797,4.24023 l 2.97461,3.75586 c 0.66133,0.0179 1.46535,0.21605 2.41016,0.5918 1.32265,0.0359 2.07847,0.58128 2.26758,1.63672 0.56695,0.71559 1.46472,2.66533 2.69335,5.84961 1.32302,2.48663 2.5979,4.09653 3.82618,4.83007 3.02351,2.18268 4.67746,3.45276 4.96093,3.81055 -0.0944,0.69765 0.28434,1.58286 1.13477,2.65625 1.22828,0.73354 2.12641,1.45824 2.69336,2.17383 0.9448,0.37574 1.70062,0.92113 2.26758,1.63672 1.22828,0.73354 1.93589,1.62815 2.125,2.68359 0.56695,0.7156 0.7571,1.77073 0.56836,3.16602 0.47258,1.41324 0.84933,2.3004 1.13281,2.6582 0.28348,0.3578 0.51988,1.0637 0.70898,2.11914 0.47258,1.41324 1.03985,2.12854 1.70118,2.14649 0.66132,0.0179 1.13449,0.20665 1.41796,0.56445 0.94481,0.37574 1.60458,0.39258 1.98243,0.0527 1.2471,-1.12168 2.00477,-2.01441 2.28711,-2.68554 0.79171,-0.62756 1.26071,-1.44672 1.39843,-2.46485 l -0.53711,-0.21289 c 0.0987,-0.43828 0.18692,-0.89034 0.25196,-1.37109 0.47222,-1.0375 0.85129,-1.37733 1.13476,-1.01953 l 1.27539,1.60937 c 0.85043,1.07339 1.74856,1.79809 2.69336,2.17383 1.13391,1.43119 2.6918,2.17467 4.67578,2.22852 0.66133,0.0179 1.70016,-0.30505 3.11719,-0.9668 1.79488,-1.0016 3.21278,-1.66248 4.25195,-1.98438 0.66133,0.018 1.51161,-0.13317 2.55079,-0.45507 1.41702,-0.66175 2.1732,-1.34142 2.26757,-2.03907 l 0.42383,-3.14062 c 0.5666,-1.73514 0.70731,-2.78088 0.42383,-3.13867 -0.28348,-0.3578 -0.66023,-1.24301 -1.13281,-2.65625 0.18874,-1.39529 0.47176,-2.26367 0.84961,-2.60352 l 1.13281,-1.01953 c 0.37785,-0.33985 0.42605,-0.68908 0.14258,-1.04688 0.0944,-0.69764 0.37738,-1.56406 0.84961,-2.60156 l 0.42382,-3.14062 c -0.1891,-1.05544 -0.56585,-1.94066 -1.13281,-2.65625 l -1.27539,-1.60938 c 0.28312,-2.09293 0.61239,-3.31054 0.99024,-3.65039 0.37785,-0.33985 0.99172,-1.19687 1.84179,-2.57422 0.85008,-1.37734 1.65446,-2.40624 2.41016,-3.08593 1.13355,-1.01955 1.84188,-2.57699 2.125,-4.66993 -0.28348,-0.35779 -0.51988,-1.06369 -0.70899,-2.11914 -0.1891,-1.05544 -0.4255,-1.76134 -0.70898,-2.11914 0.0944,-0.69764 -0.28433,-1.58286 -1.13476,-2.65625 -0.18911,-1.05544 -0.23696,-1.93321 -0.14258,-2.63086 0.47222,-1.03749 0.75523,-1.90391 0.84961,-2.60156 0.18874,-1.39529 0.47371,-2.26367 0.85156,-2.60351 0.37785,-0.33985 1.17992,-0.1437 2.4082,0.58984 1.32266,0.0359 2.45559,0.24144 3.40039,0.61719 l 1.70117,2.14843 c 0.56696,0.7156 1.04012,0.90235 1.41797,0.5625 0.7557,-0.67969 0.99246,-1.19884 0.70899,-1.55664 -0.28348,-0.35779 -0.61594,-1.59224 -0.99414,-3.70312 -3.6e-4,-2.45074 0.0944,-4.37229 0.2832,-5.76758 0.0944,-0.69765 0.33113,-1.21679 0.70898,-1.55664 l 0.28321,-2.09375 0.2832,-2.0918 c -0.28348,-0.35779 -0.37953,-0.88634 -0.28516,-1.58398 0.18875,-1.39529 0.14286,-2.27111 -0.14062,-2.62891 -0.28348,-0.35779 -0.66219,-1.24301 -1.13477,-2.65625 l -0.85156,-4.75 -0.84961,-4.75 c -0.66168,-2.46868 -0.89968,-4.39963 -0.71094,-5.79492 0.18875,-1.39529 0.51997,-2.6129 0.99219,-3.65039 0.5666,-1.73514 0.70731,-2.78088 0.42383,-3.13867 0.0944,-0.69765 -0.0938,-1.75278 -0.56641,-3.16602 -0.0947,-1.75309 -0.0481,-3.32736 0.14063,-4.72265 0.18875,-1.3953 0.0468,-2.79966 -0.42578,-4.2129 -0.0947,-1.75308 -0.23668,-3.15744 -0.42578,-4.21289 l -2.55078,-3.2207 c -1.41739,-1.78898 -2.22106,-3.21018 -2.41016,-4.26562 -0.56695,-0.7156 -1.60703,-2.84465 -3.11914,-6.38672 -1.51212,-3.54207 -2.45578,-6.36959 -2.83399,-8.48047 l -2.26953,-5.3125 c -0.75605,-1.77104 -1.08656,-3.00548 -0.99218,-3.70313 -0.28348,-0.35779 -1.70031,-3.37206 -4.25196,-9.04297 -2.55165,-5.6709 -4.44128,-10.09892 -5.66992,-13.2832 -0.47258,-1.41324 -1.4664,-3.89152 -2.97852,-7.43359 -1.13426,-3.88192 -2.59894,-7.77201 -4.39453,-11.67188 -1.41774,-4.23971 -2.88241,-8.1298 -4.39453,-11.67187 -1.41774,-4.23972 -2.64601,-7.4239 -3.68554,-9.55274 -1.41775,-4.23971 -2.88242,-8.13175 -4.39454,-11.67382 -1.51211,-3.54208 -2.22132,-5.66173 -2.12695,-6.35938 -0.28348,-0.3578 -0.66218,-1.24301 -1.13477,-2.65625 -0.3782,-2.11088 -0.47195,-3.86447 -0.2832,-5.25977 -0.1891,-1.05544 -0.18875,-2.28049 0,-3.67578 -0.0947,-1.75308 -0.28488,-2.80822 -0.56836,-3.16601 -0.28347,-0.3578 -0.47167,-1.41293 -0.5664,-3.16602 0.28312,-2.09293 0.66059,-3.65782 1.13281,-4.69531 l 2.125,-4.66992 c 0.66097,-2.43279 0.84988,-3.82775 0.56641,-4.18555 -0.85044,-1.07339 -1.18289,-2.30783 -0.99415,-3.70312 -0.28347,-0.3578 -0.75433,-1.77156 -1.41601,-4.24024 -0.28383,-2.80853 -0.33133,-4.90939 -0.14258,-6.30469 l 0.56445,-4.18554 c 0.0944,-0.69765 0.33114,-1.21679 0.70899,-1.55664 0.28347,0.35779 0.75664,0.54455 1.41797,0.5625 1.32265,0.0359 2.12472,0.234 2.4082,0.59179 0.9448,0.37575 2.36199,2.16497 4.25195,5.36719 1.88997,3.20222 3.40321,5.51803 4.53711,6.94922 l 5.10157,6.44141 c 1.98433,2.50457 3.44972,3.94456 4.39453,4.32031 l 1.27539,1.60937 c 0.66132,0.018 1.13449,0.20666 1.41797,0.56446 0.28347,0.35779 0.75468,0.54455 1.41601,0.5625 0.56695,0.71559 1.18047,1.08166 1.8418,1.09961 l 2.83594,1.1289 c 0.56695,0.7156 2.03039,2.15559 4.39257,4.32032 2.74004,1.82488 4.72485,3.10434 5.95313,3.83789 0.85043,1.07339 2.92934,2.87944 6.23633,5.41992 3.40136,1.84283 5.85738,3.30905 7.36914,4.40039 l 3.40234,4.29492 c 1.22828,0.73354 1.79555,1.44884 1.70117,2.14648 l 1.27539,1.60938 c 0.56696,0.71559 1.18047,1.08361 1.8418,1.10156 l 0.85156,1.07227 c 0.28348,0.35779 0.61239,0.36719 0.99024,0.0273 l 1.41797,4.24024 -1.27539,2.0664 0.28515,1.58203 c 0.18911,1.05545 1.18133,2.30868 2.97656,3.75782 1.51176,1.09133 2.55024,1.99339 3.11719,2.70898 l 0.85156,1.07422 c 0.37785,-0.33985 0.70676,-0.33045 0.99024,0.0273 0.28348,0.3578 0.75664,0.54455 1.41797,0.5625 l -0.84961,-1.07226 -0.42578,-0.53711 -0.42578,-0.53711 c 0.37785,-0.33985 0.42605,-0.68908 0.14257,-1.04688 -0.28347,-0.35779 -0.51988,-1.0637 -0.70898,-2.11914 0.28348,0.3578 0.61434,0.36719 0.99219,0.0274 l 0.99218,0.0273 c -0.0944,0.69765 -0.0485,1.57346 0.14063,2.62891 0.1891,1.05544 0.23695,1.93126 0.14258,2.6289 l -0.42383,3.14063 1.69922,2.14648 1.70117,2.14649 c 0.9448,0.37574 1.56027,0.74181 1.84375,1.09961 l 1.69922,2.14648 c 0.28348,0.3578 0.75664,0.54651 1.41797,0.56445 0.28347,0.3578 0.61433,0.3672 0.99218,0.0274 0.66133,0.0179 1.18075,-0.14258 1.5586,-0.48243 l 1.70117,-1.52929 1.13281,-1.01953 0.56641,-0.50977 c -0.28348,-0.3578 -0.23527,-0.70703 0.14258,-1.04687 0.7557,-0.6797 1.70007,-0.30424 2.83398,1.12695 l 0.85156,4.75 c 0.37821,2.11088 0.89727,3.17541 1.5586,3.19336 0.28347,0.3578 0.89699,0.72386 1.84179,1.09961 l 2.97657,0.0801 c 0.66132,0.0179 1.22859,0.73519 1.70117,2.14843 0.56695,0.7156 1.18047,1.08167 1.8418,1.09961 0.66132,0.018 1.6057,0.39341 2.83398,1.12696 1.22828,0.73354 2.12641,1.45823 2.69336,2.17382 1.88961,0.75149 3.40125,1.84225 4.53516,3.27344 l 1.27539,1.61133 c 0.9448,0.37574 1.60652,0.39258 1.98437,0.0527 l 1.70117,-1.52929 c 1.13355,-1.01955 1.84153,-1.34999 2.125,-0.99219 l 0.42579,0.53711 c 0.37785,-0.33985 0.70675,-0.33045 0.99023,0.0273 l 0.42578,0.53516 1.27539,1.61133 c 1.13391,1.43118 1.88973,1.97656 2.26758,1.63672 2.73968,-0.62586 3.87457,-0.42031 3.40234,0.61718 -0.0944,0.69765 -0.47184,2.26253 -1.13281,4.69532 -0.66097,2.43278 -0.51902,3.83714 0.42578,4.21289 0.56696,0.71559 3.44793,2.71975 8.64453,6.01172 5.57445,2.95211 9.77887,4.9919 12.61328,6.11914 l 8.50391,3.38086 c 2.83441,1.12723 4.58086,1.7008 5.24219,1.71875 1.03918,-0.3219 2.26852,-0.81482 3.68554,-1.47657 1.41703,-0.66175 2.26731,-0.81287 2.55079,-0.45507 l 0.42578,0.5371 c 0.37785,-0.33984 0.70676,-0.3324 0.99023,0.0254 0.28348,0.35779 0.61434,0.36719 0.99219,0.0273 l 2.83594,1.12695 c 0.9448,0.37575 1.55832,0.74377 1.84179,1.10156 0.56696,0.7156 1.18047,1.08167 1.8418,1.09961 0.56695,0.7156 1.08797,1.78012 1.56055,3.19336 l 1.69922,2.14649 1.70117,2.14648 c 1.51176,1.09134 2.74074,1.82543 3.68554,2.20117 1.32266,0.0359 3.25962,0.43955 5.81055,1.20899 l 5.66797,2.2539 8.50391,3.38086 c 5.38534,1.89668 9.1648,3.40048 11.33789,4.50977 2.17308,1.10929 4.25039,1.6903 6.23437,1.74414 2.26746,0.41164 3.5909,0.44727 3.96875,0.10742 0.37785,-0.33985 0.99173,-1.19883 1.8418,-2.57617 0.85007,-1.37734 1.60625,-2.05701 2.26758,-2.03906 0.28347,0.35779 0.89699,0.72582 1.84179,1.10156 1.60614,0.39369 2.50426,1.11839 2.69336,2.17383 1.41739,1.78898 2.03055,3.3801 1.8418,4.77539 0.28348,0.3578 1.0393,0.90318 2.26758,1.63672 1.88961,0.75149 3.4957,1.14574 4.81836,1.18164 1.22828,0.73354 2.59993,0.41994 4.11133,-0.93945 0.37785,-0.33985 0.80121,-1.02696 1.27343,-2.06446 0.85008,-1.37734 1.79481,-2.22693 2.83399,-2.54883 1.03918,-0.3219 2.22031,-0.46558 3.54297,-0.42968 1.32265,0.0359 2.26703,0.41136 2.83398,1.12695 l 2.12695,2.68359 c 1.22829,0.73354 1.93785,1.62815 2.12696,2.6836 0.66168,2.46868 1.98281,3.72936 3.96679,3.7832 0.28348,0.3578 1.46462,0.21607 3.54297,-0.42773 2.36183,-0.28601 4.20469,-0.4109 5.52735,-0.375 1.32265,0.0359 2.50379,-0.10779 3.54297,-0.42969 1.7005,-0.30395 2.73933,-0.625 3.11718,-0.96485 0.37785,-0.33984 1.27633,-0.84215 2.69336,-1.5039 1.41703,-0.66175 2.64442,-1.15271 3.6836,-1.47461 1.03917,-0.3219 2.40887,-0.6355 4.10937,-0.93945 1.70051,-0.30396 2.88164,-0.44569 3.54297,-0.42774 1.03918,-0.3219 4.01497,-0.24124 8.92773,0.24219 4.91277,0.48343 8.73884,0.41101 11.47852,-0.21485 2.73968,-0.62585 5.80993,-1.2417 9.21094,-1.8496 3.68448,-0.25011 6.18906,-0.35817 7.51172,-0.32227 1.32265,0.0359 2.8327,-0.0984 4.5332,-0.40234 l 3.96875,0.10742 4.67578,-1.44727 c 2.73968,-0.62585 4.7711,-0.92066 6.09375,-0.88476 3.40101,-0.60791 5.47868,-1.25195 6.23438,-1.93164 l 2.83398,-2.54883 c 2.17273,-1.34145 3.92149,-1.99488 5.24414,-1.95899 1.32265,0.0359 2.83465,-0.0984 4.53516,-0.40234 l 4.67578,-1.44727 c 2.07835,-0.6438 3.68481,-1.47654 4.81836,-2.49609 0.37785,-0.33985 2.0784,-0.64405 5.10156,-0.91211 3.68449,-0.25011 6.37567,-0.52612 8.07617,-0.83008 2.07836,-0.6438 4.81774,-1.271 8.21875,-1.8789 4.06234,-0.58996 6.80368,-1.21521 8.22071,-1.87696 1.41702,-0.66175 3.21008,-1.66246 5.38281,-3.0039 2.83405,-1.3235 4.77137,-2.14685 5.81054,-2.46875 1.03918,-0.3219 2.45708,-0.98278 4.25196,-1.98438 l 7.36719,-2.95117 4.10937,-0.93945 c 2.07835,-0.6438 3.3077,-1.13476 3.68555,-1.47461 l 1.13281,-1.01953 c 0.7557,-0.6797 3.44919,-2.18272 8.07812,-4.50782 5.00679,-2.66494 8.73716,-4.489 11.19336,-5.47265 2.45621,-0.98365 4.77064,-2.14684 6.94336,-3.48828 2.17273,-1.34145 3.77919,-2.17224 4.81836,-2.49414 l 1.13281,-1.01953 4.53516,-4.07813 c 2.83406,-1.3235 6.04501,-2.98704 9.63477,-4.99023 3.58975,-2.0032 5.76383,-3.3457 6.51953,-4.0254 l 3.40039,-3.05859 1.69922,-1.5293 c 0.37785,-0.33984 0.61461,-0.85899 0.70898,-1.55664 l 1.13281,-1.01953 c 0.7557,-0.67969 1.84274,-1.34997 3.25977,-2.01172 1.79488,-1.00159 3.07047,-1.84178 3.82617,-2.52148 0.7557,-0.6797 2.59696,-2.02964 5.52539,-4.05078 3.30628,-2.36099 5.85747,-4.04333 7.65235,-5.04492 3.58975,-2.0032 6.14094,-3.68358 7.65234,-5.04297 0.37785,-0.33985 1.22653,-1.71798 2.54883,-4.13281 1.98362,-2.39689 3.49598,-3.75623 4.53515,-4.07813 2.07836,-0.6438 3.87337,-1.64451 5.38477,-3.00391 l 2.26758,-2.03906 c 1.41703,-0.66175 2.50211,-1.33397 3.25781,-2.01367 0.7557,-0.6797 2.36251,-2.73554 4.81836,-6.16992 2.73933,-3.07659 4.8636,-5.2949 6.375,-6.6543 l 9.06836,-8.15625 4.53516,-4.07812 c 2.2671,-2.0391 3.8257,-3.74766 4.67578,-5.125 0.85007,-1.37735 2.50313,-3.78242 4.95898,-7.2168 2.8337,-3.77423 4.86387,-6.52109 6.0918,-8.23828 2.45585,-3.43439 4.43977,-5.83006 5.95117,-7.18946 0.37785,-0.33984 1.18028,-1.36874 2.4082,-3.08593 1.22793,-1.71719 2.07856,-3.09532 2.55078,-4.13282 0.47223,-1.03749 1.55767,-2.93281 3.25782,-5.6875 2.078,-3.09453 3.35395,-5.16172 3.82617,-6.19921 0.47222,-1.0375 1.74622,-3.10274 3.82422,-6.19727 2.36147,-2.73674 3.92008,-4.4453 4.67578,-5.125 0.7557,-0.6797 1.56008,-1.70859 2.41016,-3.08594 l 2.83398,-2.54883 c 0.37785,-0.33984 0.99172,-1.19687 1.8418,-2.57421 1.22792,-1.7172 2.21891,-2.91601 2.97461,-3.59571 l 3.96679,-3.56836 0.14258,-1.04687 4.10742,-8.29102 c 1.60542,-4.50777 3.16474,-8.66643 4.67578,-12.47656 1.79453,-3.45233 2.73766,-5.52696 2.83204,-6.22461 0.47222,-1.03749 1.0402,-2.77425 1.70117,-5.20703 1.03882,-2.77263 1.98195,-4.84727 2.83203,-6.22461 0.47222,-1.03749 0.99199,-2.42306 1.55859,-4.1582 0.94445,-2.07499 1.46422,-3.46056 1.5586,-4.15821 1.03882,-2.77263 0.89687,-4.17699 -0.42579,-4.21289 -1.98398,-0.0538 -3.16511,0.0879 -3.54296,0.42774 l -7.22657,5.58008 -6.23437,5.60937 c -3.11718,3.41644 -5.62052,5.97263 -7.50977,7.67188 -1.88925,1.69924 -4.10958,3.39097 -6.66015,5.07226 -1.88925,1.69924 -3.3534,2.70935 -4.39258,3.03125 -0.37785,0.33985 -0.70871,0.33045 -0.99219,-0.0273 l -0.56641,0.50976 c -0.37785,0.33985 -0.70871,0.33046 -0.99218,-0.0273 l -1.69922,1.5293 -1.70117,1.52929 c 0.28347,0.3578 0.23722,0.70703 -0.14063,1.04688 -0.47222,1.03749 -1.1343,2.2457 -1.98437,3.62305 l -1.41602,3.11132 c -0.0944,0.69765 -0.56594,1.73594 -1.41601,3.11328 -0.18875,1.3953 -0.47372,2.26172 -0.85157,2.60157 l -4.5332,4.08007 c -1.98363,2.39689 -3.54223,4.10351 -4.67578,5.12305 -1.13355,1.01955 -2.5977,2.03161 -4.39258,3.03321 -1.79488,1.00159 -2.83371,1.32264 -3.11719,0.96484 -0.28347,-0.3578 -0.51988,-1.0637 -0.70898,-2.11914 0.47222,-1.0375 0.75523,-1.90587 0.84961,-2.60352 0.47222,-1.03749 1.13235,-2.2457 1.98242,-3.62304 l 2.83398,-2.54883 c 0.7557,-0.6797 1.36958,-1.53673 1.8418,-2.57422 0.7557,-0.6797 0.99246,-1.19885 0.70899,-1.55664 l -0.28321,-1.58399 -2.97656,-0.0801 c -1.98398,-0.0539 -3.40152,-0.61802 -4.25195,-1.69141 -0.66133,-0.0179 -2.07728,0.64488 -4.25,1.98633 -1.79488,1.0016 -3.21278,1.66247 -4.25196,1.98437 -2.83405,1.3235 -4.81762,2.49608 -5.95117,3.51563 -1.13355,1.01954 -1.79367,2.2258 -1.98242,3.62109 -0.47222,1.0375 -1.1343,2.24571 -1.98438,3.62305 -0.56659,1.73514 -1.22672,2.94139 -1.98242,3.62109 -0.7557,0.6797 -1.84274,1.35192 -3.25976,2.01367 -1.13355,1.01955 -2.17239,1.34059 -3.11719,0.96485 l -2.12695,-2.6836 c -0.56696,-0.71559 -0.80336,-1.42149 -0.70899,-2.11914 l -2.97656,-3.75781 c -0.66133,-0.018 -2.03102,0.29565 -4.10938,0.93945 -1.7005,0.30396 -3.07019,0.6156 -4.10937,0.9375 -1.98398,-0.0538 -4.53481,0.40344 -7.65234,1.36914 l -2.26758,2.03907 -3.9668,3.56836 c -1.88925,1.69924 -4.8638,4.06868 -8.92578,7.10937 -3.40065,3.05864 -5.62098,4.74841 -6.66016,5.07031 l -4.25195,1.98633 c -1.41703,0.66175 -2.31356,1.16211 -2.69141,1.50196 l -5.66797,5.09765 c -2.73932,3.07659 -4.86555,5.2949 -6.37695,6.6543 l -9.63476,8.66601 c -0.7557,0.6797 -1.74669,1.87852 -2.97461,3.59571 -0.85008,1.37734 -1.51215,2.5836 -1.98438,3.62109 l -1.41601,3.11328 -1.13477,1.01953 c -1.5114,1.3594 -2.97555,2.3695 -4.39258,3.03125 -1.41703,0.66175 -2.50211,1.33202 -3.25781,2.01172 -0.7557,0.6797 -1.65418,1.18201 -2.69336,1.50391 l -5.38477,3.0039 c -1.41702,0.66175 -2.31355,1.16211 -2.6914,1.50196 -0.37785,0.33985 -1.65345,1.18199 -3.82617,2.52343 l -3.40039,3.0586 c -0.7557,0.6797 -2.0313,1.51989 -3.82618,2.52148 l -2.26757,2.03907 c -0.37785,0.33984 -3.16349,1.31432 -8.35938,2.92382 -4.53456,1.62745 -8.03012,2.93237 -10.48633,3.91602 l -9.35351,2.89844 -1.13281,1.01953 -1.13477,1.01953 c -0.37785,0.33985 -0.70676,0.33045 -0.99023,-0.0273 l -3.96876,3.56835 c -1.98362,2.39689 -3.49402,3.75623 -4.5332,4.07813 -1.03918,0.3219 -2.92829,0.79602 -5.66797,1.42187 -2.4562,0.98365 -4.20496,1.63514 -5.24414,1.95704 -1.03917,0.3219 -2.97649,1.14525 -5.81054,2.46875 -2.45621,0.98365 -4.34532,1.45777 -5.66797,1.42187 -1.32266,-0.0359 -3.35407,0.25891 -6.09375,0.88477 -2.36183,0.286 -4.06239,0.59021 -5.10157,0.91211 -1.03917,0.3219 -3.25914,0.78662 -6.66015,1.39453 -3.11753,0.9657 -5.3375,1.43042 -6.66016,1.39453 -1.7005,0.30395 -4.06082,0.58936 -7.08398,0.85742 -2.36183,0.286 -4.20469,0.4109 -5.52735,0.375 -1.32265,-0.0359 -2.83465,0.0984 -4.53515,0.40234 -1.03918,0.3219 -1.7009,0.30507 -1.98438,-0.0527 -0.66132,-0.018 -2.50223,0.10694 -5.52539,0.375 -2.36183,0.286 -4.20469,0.4109 -5.52734,0.375 -1.32266,-0.0359 -4.10989,-0.28647 -8.36133,-0.75195 -3.87359,-0.80534 -6.47227,-1.22583 -7.79492,-1.26172 l -6.94336,-0.18946 c -3.02316,0.26806 -5.19688,0.38551 -6.51953,0.34961 l -4.95899,-0.13476 c -1.32265,-0.0359 -2.12668,-0.234 -2.41015,-0.5918 -0.66133,-0.018 -1.79426,-0.22349 -3.40039,-0.61719 -1.60613,-0.39369 -3.06993,-0.60863 -4.39258,-0.64453 l -5.66992,-2.2539 c -2.45657,-1.46709 -4.34532,-2.21801 -5.66797,-2.25391 -1.32266,-0.0359 -3.11731,-0.26023 -5.38477,-0.67187 -1.98398,-0.0539 -3.44973,-0.26879 -4.39453,-0.64454 l -4.25195,-1.6914 c -1.60613,-0.39369 -3.06993,-0.60864 -4.39258,-0.64453 -0.9448,-0.37575 -2.07774,-0.58129 -3.40039,-0.61719 l -1.98438,-0.0527 c -0.66132,-0.018 -2.07886,-0.58212 -4.25195,-1.69141 -2.17308,-1.10929 -3.73098,-1.85082 -4.67578,-2.22656 l -5.66992,-2.25586 c -2.45656,-1.46709 -4.15676,-2.38793 -5.10157,-2.76367 -0.9448,-0.37575 -3.16441,-1.13607 -6.66015,-2.28126 -3.40137,-1.84282 -6.04789,-3.14108 -7.9375,-3.89257 -1.51176,-1.09134 -5.52762,-3.30105 -12.04688,-6.62891 -6.80273,-3.68566 -11.95152,-6.10091 -15.44726,-7.24609 -3.11789,-1.48503 -6.09332,-2.79074 -8.92774,-3.91797 -2.83441,-1.12724 -4.58281,-1.69885 -5.24414,-1.7168 -0.66132,-0.018 -1.89031,-0.75204 -3.68554,-2.20117 -2.07871,-1.80693 -3.59036,-2.89769 -4.53516,-3.27344 -0.9448,-0.37574 -2.5027,-1.11923 -4.67578,-2.22851 -2.17309,-1.10929 -3.54438,-2.02074 -4.11133,-2.73633 -0.56695,-0.7156 -1.32277,-1.26098 -2.26758,-1.63672 -1.22828,-0.73354 -1.9841,-1.28088 -2.26758,-1.63867 0.0944,-0.69765 -0.14203,-1.40355 -0.70898,-2.11914 l -1.27539,-1.60938 c -0.28348,-0.35779 -1.46426,-1.44111 -3.54297,-3.24804 -1.70086,-2.14679 -3.1643,-3.58678 -4.39258,-4.32032 l -3.68554,-2.20117 c -1.22829,-0.73354 -1.98411,-1.27892 -2.26758,-1.63672 l -2.97656,-0.0801 c -0.94481,-0.37574 -1.74688,-0.57385 -2.40821,-0.59179 -0.28347,-0.3578 -1.0875,-0.55395 -2.41015,-0.58985 -1.22829,-0.73354 -2.12641,-1.45823 -2.69336,-2.17383 -0.94481,-0.37574 -1.84098,-1.10043 -2.69141,-2.17382 -0.85043,-1.07339 -1.74856,-1.79809 -2.69336,-2.17383 -0.56695,-0.71559 -1.74773,-1.79696 -3.54297,-3.24609 -2.07871,-1.80694 -3.59035,-2.89965 -4.53515,-3.2754 -0.94481,-0.37574 -2.92961,-1.65326 -5.95313,-3.83593 -2.92914,-2.88033 -5.15035,-4.86765 -6.66211,-5.95899 -1.13391,-1.43118 -3.49547,-3.59587 -7.08594,-6.49414 -3.59046,-2.89827 -6.33109,-4.72312 -8.2207,-5.47461 -1.51176,-1.09134 -3.63691,-2.54816 -6.37695,-4.37304 -2.64567,-2.52253 -4.43996,-3.97192 -5.38477,-4.34766 -0.9448,-0.37575 -2.17379,-1.10983 -3.68555,-2.20117 -1.51175,-1.09134 -2.36167,-2.16526 -2.55078,-3.22071 l -4.25195,-5.36718 c -0.9448,-0.37575 -2.31609,-1.2872 -4.11133,-2.73633 L 290,-902.37109 c -0.56695,-0.7156 -2.03039,-2.15559 -4.39258,-4.32032 l -4.25195,-5.36718 -4.67774,-5.90235 c -1.88996,-3.20222 -3.44945,-5.17075 -4.67773,-5.90429 -2.26781,-2.86238 -4.06406,-4.31176 -5.38672,-4.34766 -0.28348,-0.3578 -0.75469,-0.54455 -1.41601,-0.5625 -0.94481,-0.37575 -1.56028,-0.74377 -1.84375,-1.10156 -0.66133,-0.018 -1.60571,-0.39341 -2.83399,-1.12696 -0.85043,-1.07339 -1.36949,-2.13791 -1.55859,-3.19336 l 0.42383,-3.13867 c 0.0944,-0.69764 2.7e-4,-1.22619 -0.28321,-1.58398 -0.1891,-1.05544 -0.18874,-2.28049 0,-3.67578 l 0.70703,-5.23242 0.84961,-6.2793 c 0.094,-3.14838 0.23508,-5.41916 0.42383,-6.81446 0.18875,-1.39529 0.28356,-3.31879 0.2832,-5.76953 -3.5e-4,-2.45073 0.0945,-4.37424 0.28321,-5.76953 0.18874,-1.39529 0.84923,-3.82659 1.98242,-7.29687 1.13319,-3.47028 1.79367,-5.90354 1.98242,-7.29883 l 1.13281,-8.37109 c 0.66062,-4.88357 1.27325,-8.19457 1.83985,-9.92967 0.56659,-1.7352 1.04047,-3.9965 1.41797,-6.7871 0.37749,-2.7906 0.47035,-4.7141 0.28125,-5.7696 0.18874,-1.3953 0.23535,-2.9695 0.14062,-4.7226 l -0.84961,-4.75 0.99024,-7.3242 c 0.18839,-3.8461 0.56621,-6.6379 1.13281,-8.3731 0.5666,-1.7351 0.99032,-3.6492 1.27344,-5.7422 0.28312,-2.0929 0.28347,-3.318 0,-3.6758 0.18874,-1.3952 -0.28407,-2.809 -1.41797,-4.2402 -0.28348,-0.3578 -0.18867,-2.2793 0.2832,-5.7676 l 0.99023,-7.3261 c 0.18875,-1.3953 0.61443,-3.3094 1.2754,-5.7422 l 0.8496,-6.2793 -0.56835,-3.166 c -0.0947,-1.7531 -0.28293,-2.8083 -0.56641,-3.1661 -0.28348,-0.3577 -0.33133,-1.2336 -0.14258,-2.6289 0.5666,-1.7351 0.89782,-2.9527 0.99219,-3.6504 0.0944,-0.6976 0.18759,-3.8461 0.28125,-9.4453 0.47151,-5.9389 0.75559,-10.4824 0.84961,-13.6308 0.094,-3.1484 0.0449,-6.4743 -0.14453,-9.9805 -0.18946,-3.5062 -0.56782,-5.6184 -1.13477,-6.334 -0.1891,-1.0554 -0.89831,-3.1751 -2.12695,-6.3594 -1.13427,-3.8819 -2.07793,-6.7074 -2.83399,-8.4785 -0.3782,-2.1109 -1.46612,-5.1157 -3.26171,-9.0156 -1.7956,-3.8999 -2.88156,-6.9067 -3.25977,-9.0176 -0.75606,-1.771 -1.79613,-3.9001 -3.11914,-6.3867 -1.60649,-2.8444 -2.69281,-4.6242 -3.25977,-5.3398 l -2.12695,-2.6836 c -0.85043,-1.0734 -1.22719,-1.9586 -1.13281,-2.6563 -0.28348,-0.3578 -0.37953,-0.8844 -0.28516,-1.582 -0.1891,-1.0554 -0.42551,-1.7633 -0.70898,-2.1211 -0.28348,-0.3578 -0.51988,-1.0637 -0.70899,-2.1191 0.18875,-1.3953 0.14285,-2.2712 -0.14062,-2.6289 -1.13391,-1.4312 -2.64555,-2.5239 -4.53516,-3.2754 l -2.55273,-3.2188 c -0.75606,-1.771 -1.22692,-3.1848 -1.41602,-4.2402 -0.56695,-0.7156 -1.08797,-1.7801 -1.56055,-3.1934 -0.3782,-2.1109 -0.47195,-3.8645 -0.2832,-5.2597 -0.1891,-1.0555 -0.33105,-2.4598 -0.42578,-4.2129 -3.6e-4,-2.4508 0.0925,-4.3743 0.28125,-5.7696 0.18875,-1.3953 -0.14176,-2.6297 -0.99219,-3.7031 -0.47258,-1.4132 -0.99164,-2.4778 -1.55859,-3.1934 -0.94481,-0.3757 -1.74883,-0.5718 -2.41016,-0.5898 z m -101.16992,78.1289 0.99219,0.027 c 0.28347,0.3577 0.23527,0.705 -0.14258,1.0449 l -0.70898,1.5566 -1.13282,1.0195 c -0.37785,0.3399 -0.70871,0.3305 -0.99218,-0.027 l 0.14257,-1.0449 1.13282,-1.0196 0.5664,-0.5097 c -0.28347,-0.3578 -0.23527,-0.707 0.14258,-1.0469 z m 37.21484,50.8008 c 0.065,-0.02 0.13226,0.014 0.20313,0.1035 1.32265,0.036 2.26898,0.4114 2.83594,1.127 0.56695,0.7156 1.84219,1.1004 3.82617,1.1543 l 0.99219,0.027 1.55859,-0.4824 c 0.56695,0.7156 1.08601,1.7801 1.55859,3.1933 0.18911,1.0555 0.61407,1.5915 1.27539,1.6094 l 1.98438,0.055 c 1.41703,-0.6617 2.64442,-1.1547 3.68359,-1.4766 1.03918,-0.3219 2.03176,-0.2937 2.97657,0.082 l 1.98437,0.053 c 0.9448,0.3757 2.17379,1.1098 3.68555,2.2012 1.22828,0.7335 1.79359,1.4488 1.69922,2.1465 l 2.55273,3.2207 c -0.0944,0.6976 0.18793,2.2813 0.84961,4.75 0.37821,2.1108 0.4739,3.8625 0.28516,5.2578 -0.18875,1.3953 -0.095,3.1489 0.2832,5.2597 0.37821,2.1109 0.85101,3.5247 1.41797,4.2403 0.1891,1.0554 0.51961,2.2899 0.99219,3.7031 0.85043,1.0734 1.37144,2.1379 1.56054,3.1934 l 1.8418,-6.252 c 1.41738,1.789 2.03054,3.3801 1.8418,4.7754 0.28347,0.3578 0.33096,2.4606 0.14257,6.3066 l 0.42579,7.8887 c 7.1e-4,4.9015 -0.23322,9.0958 -0.70508,12.584 -0.18875,1.3953 -9.1e-4,3.6774 0.5664,6.8437 0.28384,2.8086 0.33133,4.9094 0.14258,6.3047 l -2.83008,20.9297 -1.13281,8.37111 c -0.75534,3.13043 -1.22727,5.39377 -1.41601,6.78907 l -0.56641,4.18554 c -0.47222,1.0375 -0.75524,1.90587 -0.84961,2.60352 0.28348,0.35779 0.56578,1.93951 0.84961,4.74804 0.28383,2.80853 0.33328,4.91135 0.14453,6.30664 l -0.99219,7.32618 c -0.75534,3.13043 -1.03871,5.2219 -0.84961,6.27734 -0.18874,1.39529 -0.56621,2.96017 -1.13281,4.69531 l -0.42383,3.14063 c -0.0944,0.69764 -0.33113,1.21679 -0.70898,1.55664 -0.37785,0.33985 -0.61461,0.85704 -0.70899,1.55469 l -0.14062,1.04687 -0.2832,2.09375 c -0.0944,0.69765 -2.8e-4,1.22424 0.2832,1.58203 0.28348,0.3578 0.23722,0.70703 -0.14063,1.04688 -0.47222,1.03749 -0.80344,2.2551 -0.99218,3.65039 0.1891,1.05544 0.23695,1.93126 0.14258,2.6289 -0.0944,0.69765 -0.4256,1.9133 -0.99219,3.64844 -0.18875,1.39529 -0.47176,2.26367 -0.84961,2.60352 -0.37785,0.33985 -0.80353,2.25396 -1.27539,5.74219 l -0.99024,7.32421 c -0.18874,1.39529 -0.80297,3.47932 -1.84179,6.25196 -1.03882,2.77263 -1.6511,4.85666 -1.83985,6.25195 -0.18874,1.39529 -0.56817,2.96213 -1.13476,4.69727 -0.18875,1.39529 -0.47176,2.26171 -0.84961,2.60156 -0.37785,0.33985 -0.80317,1.02891 -1.27539,2.0664 l -1.13282,1.01954 c -0.7557,0.67969 -1.55777,0.48354 -2.4082,-0.58985 l -1.27734,-1.61133 -0.42383,-0.53711 -0.70898,-2.11914 c -0.18911,-1.05544 -1.41738,-4.23962 -3.68555,-9.55273 -1.89032,-5.65296 -3.16644,-9.71296 -3.82813,-12.18164 -0.66168,-2.46868 -1.79585,-5.12628 -3.40234,-7.9707 -1.22864,-3.18428 -1.93785,-5.30394 -2.12695,-6.35938 -0.56696,-0.71559 -1.18207,-2.30866 -1.84375,-4.77734 -0.66169,-2.46868 -1.08629,-4.22972 -1.27539,-5.28516 -0.18911,-1.05544 -0.70817,-2.11997 -1.5586,-3.19336 -0.75606,-1.77103 -1.08851,-3.00548 -0.99414,-3.70312 -0.28348,-0.3578 -0.94448,-2.82669 -1.98437,-7.40625 -0.66204,-4.91942 -1.32465,-8.61335 -1.98633,-11.08204 l -3.11719,-6.38671 c -0.66168,-2.46869 -1.32305,-3.71252 -1.98437,-3.73047 -0.66133,-0.018 -1.41715,-0.56333 -2.26758,-1.63672 -1.13391,-1.43119 -1.60672,-2.84299 -1.41797,-4.23828 0.37749,-2.79058 0.13949,-4.72349 -0.71094,-5.79688 -0.28348,-0.35779 -1.03894,-2.12822 -2.26758,-5.3125 -1.51211,-3.54207 -2.45773,-6.36958 -2.83593,-8.48046 -0.75606,-1.771 -1.65383,-3.7208 -2.69336,-5.8496 -1.03954,-2.1288 -1.84125,-3.55 -2.40821,-4.2656 l -1.41992,-7.9161 0.99219,-7.3261 c 0.47222,-1.0375 0.84969,-2.6024 1.13281,-4.6953 -3.6e-4,-2.4508 0.18856,-3.8457 0.56641,-4.1856 0.37785,-0.3398 1.36883,-1.5387 2.97461,-3.5957 l 3.82617,-6.1973 c 0.47222,-1.0375 1.88852,-2.9253 4.25,-5.6621 2.078,-3.0945 3.35395,-5.1597 3.82617,-6.1972 0.47222,-1.0375 1.13235,-2.2457 1.98242,-3.6231 1.22793,-1.7172 1.89,-2.9254 1.98438,-3.623 0.47222,-1.0375 0.14172,-2.27 -0.99219,-3.7012 l -1.98437,-0.055 c -0.94481,-0.3757 -1.74883,-0.5719 -2.41016,-0.5898 -0.0699,0 -0.14094,0.01 -0.21289,0.022 0.30735,-0.5284 0.6598,-1.3918 1.0625,-2.625 0.94445,-2.075 1.79508,-3.4532 2.55078,-4.1329 0.7557,-0.6797 1.84274,-1.3499 3.25977,-2.0117 1.13355,-1.0195 1.74742,-1.8785 1.84179,-2.5761 0.47223,-1.0375 1.55767,-2.9329 3.25781,-5.6875 l 1.70118,-1.5293 1.69922,-1.5293 c 0.47186,-3.4883 0.28402,-5.7684 -0.56641,-6.8418 0.0944,-0.6977 0.37738,-1.5661 0.84961,-2.6036 0.14156,-1.0464 0.30906,-1.5998 0.5039,-1.6601 z m -22.89062,30.9863 c 0.66133,0.018 1.4634,0.2141 2.4082,0.5899 l 1.98438,0.055 c 0.31532,0.398 0.66145,0.5727 1.03515,0.5391 -0.24231,0.2907 -0.49199,0.6237 -0.75195,1.0449 -0.7557,0.6797 -1.03871,1.5462 -0.84961,2.6016 l -0.56641,4.1855 c -0.0944,0.6977 -0.47148,1.0375 -1.13281,1.0196 l -2.125,-2.6836 c -1.1339,-1.4312 -1.60671,-2.843 -1.41797,-4.2383 l -0.85156,-1.0742 c -0.28348,-0.3578 -0.23527,-0.707 0.14258,-1.0469 l 0.56641,-0.5098 c 0.37785,-0.3398 0.70871,-0.3304 0.99218,0.027 z m -6.51563,22.4043 0.28321,1.584 c 0.66132,0.018 1.18074,-0.1426 1.55859,-0.4824 l 0.56836,-0.5098 0.42383,0.5371 c -0.0944,0.6977 -0.32918,1.2149 -0.70703,1.5547 -0.0944,0.6977 -0.33114,1.2168 -0.70899,1.5566 l -0.5664,0.5098 c -1.13355,1.0196 -2.12614,0.9933 -2.97657,-0.08 -0.28347,-0.3578 -0.18902,-1.0562 0.28321,-2.0937 0.85007,-1.3774 1.46394,-2.2363 1.84179,-2.5762 z m 309.69532,363.93556 -0.14258,1.04688 -0.56641,0.50976 -0.84961,-1.07422 z"
         style="font-style:normal;font-weight:normal;font-size:666.66668701px;line-height:1.25;font-family:sans-serif;letter-spacing:0px;word-spacing:0px;fill:#d91f2b;fill-opacity:1;stroke:none;stroke-width:1.08265185"
         transform="matrix(0.26458333,0,0,0.26458333,0,58.874983)"
         id="flowRoot944"
         inkscape:connector-curvature="0" />
      <flowRoot
         transform="matrix(0.1805466,-0.13092096,0.13824003,0.19063998,50.541668,-254.38291)"
         style="font-style:normal;font-variant:normal;font-weight:normal;font-stretch:normal;font-size:666.66668701px;line-height:1.25;font-family:'Rhinos rocks';-inkscape-font-specification:'Rhinos rocks';letter-spacing:0px;word-spacing:0px;fill:#d91f2b;fill-opacity:1;stroke:none;"
         id="flowRoot952"
         xml:space="preserve"><flowRegion
           style="font-style:normal;font-variant:normal;font-weight:normal;font-stretch:normal;font-size:666.66668701px;font-family:'Rhinos rocks';-inkscape-font-specification:'Rhinos rocks';fill:#d91f2b;fill-opacity:1;"
           id="flowRegion948"><rect
             style="font-style:normal;font-variant:normal;font-weight:normal;font-stretch:normal;font-size:666.66668701px;font-family:'Rhinos rocks';-inkscape-font-specification:'Rhinos rocks';fill:#d91f2b;fill-opacity:1;"
             y="-1.05607"
             x="-4.0406103"
             height="901.05609"
             width="907.117"
             id="rect946" /></flowRegion><flowPara
           style="font-style:normal;font-variant:normal;font-weight:normal;font-stretch:normal;font-size:666.66668701px;font-family:'Rhinos rocks';-inkscape-font-specification:'Rhinos rocks';fill:#d91f2b;fill-opacity:1;"
           id="flowPara950">S</flowPara></flowRoot>    </g>
  </g>
</svg>
